<svg width="21" height="22" viewBox="0 0 21 22" fill="none" xmlns="http://www.w3.org/2000/svg">
<path d="M17.5001 7.85285L12.2501 3.25035C11.7688 2.81989 11.1458 2.58191 10.5001 2.58191C9.85439
 2.58191 9.23135 2.81989 8.75008 3.25035L3.50008 7.85285C3.22216 8.10141 3.00037 8.40634 2.8495
  8.74731C2.69862 9.08829 2.62212 9.4575 2.62508 9.83035V17.4778C2.62508 18.174 2.90164 18.8417 
  3.39393 19.334C3.88621 19.8263 4.55389 20.1028 5.25008 20.1028H15.7501C16.4463 20.1028 17.114 19.8263 
  17.6062 19.334C18.0985 18.8417 18.3751 18.174 18.3751 17.4778V9.8216C18.3768 9.45022 18.2997 9.0827
   18.1489 8.74332C17.998 8.40394 17.7769 8.10044 17.5001 7.85285ZM12.2501 18.3528H8.75008V13.9778C8.75008
    13.7458 8.84227 13.5232 9.00636 13.3591C9.17046 13.195 9.39302 13.1028 9.62508 13.1028H11.3751C11.6071 
    13.1028 11.8297 13.195 11.9938 13.3591C12.1579 13.5232 12.2501 13.7458 12.2501 13.9778V18.3528ZM16.6251
     17.4778C16.6251 17.7099 16.5329 17.9325 16.3688 18.0966C16.2047 18.2607 15.9821 18.3528 15.7501
      18.3528H14.0001V13.9778C14.0001 13.2817 13.7235 12.614 13.2312 12.1217C12.739 11.6294 12.0713 
      11.3528 11.3751 11.3528H9.62508C8.92889 11.3528 8.26121 11.6294 7.76893 12.1217C7.27664 12.614 7.00008
       13.2817 7.00008 13.9778V18.3528H5.25008C5.01802 18.3528 4.79546 18.2607 4.63136 18.0966C4.46727 17.9325 
       4.37508 17.7099 4.37508 17.4778V9.8216C4.37524 9.69736 4.40185 9.57458 4.45315 9.46143C4.50444 9.34828
        4.57925 9.24735 4.67258 9.16535L9.92258 4.5716C10.0823 4.43132 10.2875 4.35396 10.5001 4.35396C10.7126
         4.35396 10.9179 4.43132 11.0776 4.5716L16.3276 9.16535C16.4209 9.24735 16.4957 9.34828 16.547 
         9.46143C16.5983 9.57458 16.6249 9.69736 16.6251 9.8216V17.4778Z" fill="black"/>
</svg>
